<?xml version="1.0" encoding="utf-8"?>
<!-- Generator: Adobe Illustrator 25.4.1, SVG Export Plug-In . SVG Version: 6.00 Build 0)  -->
<svg version="1.1" id="Ebene_1" xmlns="http://www.w3.org/2000/svg" xmlns:xlink="http://www.w3.org/1999/xlink" x="0px" y="0px"
	 viewBox="0 0 177 560" style="enable-background:new 0 0 177 560;" xml:space="preserve">
<style type="text/css">
	.st0{clip-path:url(#SVGID_00000025433300096592159560000006972550140270078862_);fill:#222221;}
</style>
<g>
	<defs>
		<rect id="SVGID_1_" x="5" y="3" width="172" height="553"/>
	</defs>
	<clipPath id="SVGID_00000053540404980447760170000008771701866807738805_">
		<use xlink:href="#SVGID_1_"  style="overflow:visible;"/>
	</clipPath>
	<path style="clip-path:url(#SVGID_00000053540404980447760170000008771701866807738805_);fill:#222221;" d="M158.2,49.4H5v14.9
		C20.7,76.2,34.2,93,45.6,114.7h20.8C57.8,99,45.9,83.8,30.7,69.2h127.5v49.6h15.4V3h-15.4V49.4z M156.4,239.2
		c-15.6-22.3-29.5-40.4-41.9-54.4s-23-23.6-31.8-28.6c-8.9-5-18.1-7.6-27.7-7.6c-14,0-25.8,5.3-35.5,16C9.9,175.2,5,189,5,206.1
		c0,31.5,16.2,51.2,48.5,59.3l5.8-19.2c-11.7-1-20.9-5.3-27.8-13.1c-6.8-7.7-10.2-16.7-10.2-26.7c0-9.8,3.1-18.4,9.3-25.9
		c6.2-7.5,14.4-11.3,24.4-11.3c10.8,0,21.7,4.5,32.7,13.4c11,8.9,33.9,36.5,68.6,82.8h17.2V148.1h-17.2V239.2z M141.5,381.7
		c-12.8,7.1-29.9,10.7-51.4,10.7c-20.7,0-37.3-3.4-50-10.1c-12.7-6.7-19-17-19-30.8c0-14.3,6.9-24.8,20.8-31.7
		c13.9-6.8,31.3-10.3,52.2-10.3c19.1,0,35,3.4,47.6,10.1c12.6,6.7,18.9,17,18.9,31C160.6,364.2,154.3,374.6,141.5,381.7
		 M151.4,304.7c-17-11-36.9-16.5-59.7-16.5c-23.2,0-43.5,5.4-60.8,16C13.7,314.9,5,330.6,5,351.3c0,19.8,8.3,35.1,24.8,45.9
		c16.6,10.8,36.8,16.2,60.9,16.2c24.5,0,44.9-5.7,61.4-17.1c16.5-11.4,24.8-26.6,24.8-45.6C177,331,168.5,315.6,151.4,304.7
		 M156.4,529.9c-15.6-22.3-29.5-40.4-41.9-54.5c-12.3-14-23-23.6-31.8-28.6c-8.9-5-18.1-7.6-27.7-7.6c-14,0-25.8,5.3-35.5,16
		C9.9,465.8,5,479.7,5,496.7c0,31.5,16.2,51.2,48.5,59.3l5.8-19.2c-11.7-1-20.9-5.3-27.8-13.1c-6.8-7.7-10.2-16.7-10.2-26.7
		c0-9.8,3.1-18.4,9.3-25.9c6.2-7.5,14.4-11.2,24.4-11.2c10.8,0,21.7,4.4,32.7,13.4c11,8.9,33.9,36.5,68.6,82.8h17.2V438.7h-17.2
		V529.9z"/>
</g>
<g>
</g>
<g>
</g>
<g>
</g>
<g>
</g>
<g>
</g>
<g>
</g>
<g>
</g>
<g>
</g>
<g>
</g>
<g>
</g>
<g>
</g>
<g>
</g>
<g>
</g>
<g>
</g>
<g>
</g>
</svg>
