<?xml version="1.0" encoding="utf-8"?>
<!-- Generator: Adobe Illustrator 23.0.6, SVG Export Plug-In . SVG Version: 6.00 Build 0)  -->
<svg version="1.1" id="Ebene_1" xmlns="http://www.w3.org/2000/svg" xmlns:xlink="http://www.w3.org/1999/xlink" x="0px" y="0px"
	 viewBox="0 0 120.2 71.2" style="enable-background:new 0 0 120.2 71.2;" xml:space="preserve">
<style type="text/css">
	.st0{enable-background:new    ;}
	.st1{fill:#E3061A;}
</style>
<g class="st0">
	<path class="st1" d="M50.1,11l1.2,15h-1.2c-1.2-3.7-2.8-6.6-4.7-8.5c-2.8-2.7-6.4-4.1-10.7-4.1c-5.9,0-10.5,2.4-13.6,7.2
		c-2.6,4.1-3.9,8.9-3.9,14.5c0,4.5,0.9,8.7,2.6,12.4c1.7,3.8,4,6.5,6.8,8.2c2.8,1.7,5.7,2.6,8.6,2.6c1.7,0,3.4-0.2,5-0.7
		c1.6-0.4,3.2-1.1,4.7-2V42.1c0-2.4-0.2-4-0.5-4.7c-0.4-0.7-0.9-1.3-1.7-1.7c-0.7-0.4-2.1-0.6-3.9-0.6v-1.3h18.1v1.3h-0.9
		c-1.8,0-3,0.6-3.7,1.8c-0.5,0.9-0.7,2.6-0.7,5.1v14.6c-2.6,1.5-5.2,2.5-7.8,3.2s-5.4,1-8.6,1c-9,0-15.9-3-20.6-8.9
		c-3.5-4.4-5.3-9.5-5.3-15.3c0-4.2,1-8.2,3-12.1c2.3-4.6,5.6-8.1,9.6-10.5C25.3,12,29.3,11,34,11c1.7,0,3.2,0.1,4.6,0.4
		s3.4,0.9,5.9,1.9c1.3,0.5,2.1,0.7,2.6,0.7c0.4,0,0.8-0.2,1.1-0.6c0.3-0.4,0.5-1.2,0.6-2.4H50.1z"/>
	<path class="st1" d="M78.8,33.4L96,50.8c2.8,2.9,5.2,4.8,7.2,5.9c2,1,4,1.6,6,1.8v1.3H87v-1.3c1.3,0,2.3-0.2,2.9-0.7
		c0.6-0.5,0.9-1,0.9-1.5s-0.1-1.1-0.3-1.5c-0.2-0.4-0.9-1.3-2.2-2.5L72.2,36v15.4c0,2.4,0.1,4,0.4,4.8c0.2,0.6,0.7,1.1,1.4,1.5
		c1,0.6,2,0.8,3.1,0.8h1.6v1.3H58.9v-1.3h1.7c1.9,0,3.3-0.6,4.2-1.7c0.6-0.8,0.8-2.6,0.8-5.4V20.6c0-2.4-0.2-4-0.4-4.8
		c-0.2-0.6-0.7-1.1-1.4-1.5c-1-0.6-2.1-0.8-3.2-0.8h-1.7v-1.3h19.9v1.3h-1.6c-1.1,0-2.1,0.3-3.1,0.8c-0.7,0.4-1.2,0.9-1.5,1.7
		c-0.3,0.8-0.4,2.3-0.4,4.6v14.6c0.5-0.4,2-1.9,4.7-4.5c6.8-6.4,10.9-10.6,12.4-12.8c0.6-0.9,0.9-1.8,0.9-2.5c0-0.5-0.2-1-0.7-1.4
		c-0.5-0.4-1.3-0.6-2.4-0.6H86v-1.3h17.2v1.3c-1,0-1.9,0.2-2.8,0.4c-0.8,0.3-1.8,0.8-3,1.5c-1.2,0.7-2.7,1.9-4.4,3.6
		c-0.5,0.5-2.8,2.9-7,7.2L78.8,33.4z"/>
</g>
</svg>
