<?xml version="1.0" encoding="utf-8"?>
<!-- Generator: Adobe Illustrator 23.1.1, SVG Export Plug-In . SVG Version: 6.00 Build 0)  -->
<svg version="1.1" id="Ebene_1" xmlns="http://www.w3.org/2000/svg" xmlns:xlink="http://www.w3.org/1999/xlink" x="0px" y="0px"
	 viewBox="0 0 135.8 69.2" style="enable-background:new 0 0 135.8 69.2;" xml:space="preserve">
<title>GK</title>
<g>
	<g>
		<path d="M57.9,0l1.7,20.9h-1.7c-1.7-5.2-4-9.1-6.7-11.8c-3.9-3.8-9-5.7-15.2-5.7c-8.4,0-14.8,3.3-19.2,10
			c-3.7,5.6-5.5,12.3-5.5,20.1c-0.1,6,1.2,11.9,3.7,17.3c2.4,5.2,5.6,9,9.6,11.5c3.6,2.3,7.9,3.6,12.2,3.6c2.4,0,4.8-0.3,7.1-0.9
			s4.5-1.5,6.6-2.7V43.1c0-3.3-0.2-5.5-0.8-6.5c-0.5-1-1.3-1.8-2.4-2.3c-1.8-0.7-3.7-0.9-5.6-0.8v-1.9h25.6v1.9h-1.2
			c-2.5,0-4.3,0.8-5.2,2.5c-0.6,1.2-1,3.6-1,7.1v20.3c-3.5,1.9-7.2,3.4-11.1,4.5c-4,1-8.1,1.5-12.2,1.4c-12.8,0-22.5-4.1-29.1-12.3
			C2.6,51-0.1,43.5,0,35.7C0.1,22.8,6.9,10.9,17.8,4.2C23.1,1.3,29-0.2,35,0c2.2,0,4.4,0.2,6.6,0.6c2.8,0.7,5.6,1.5,8.4,2.6
			c1.2,0.5,2.4,0.8,3.7,1c0.6,0,1.2-0.3,1.6-0.9c0.6-1,0.8-2.2,0.8-3.3L57.9,0z"/>
		<path d="M92.6,31L117,55.3c4,4,7.4,6.7,10.2,8.2c2.6,1.4,5.5,2.2,8.5,2.5v1.8h-31.5V66c1.4,0.1,2.8-0.2,4.1-1
			c0.7-0.5,1.2-1.3,1.2-2.1c0-0.7-0.1-1.4-0.5-2.1c-0.9-1.3-1.9-2.4-3.1-3.5L83.2,34.7V56c0,3.3,0.2,5.5,0.6,6.6
			c0.4,0.9,1.1,1.7,2,2.1c1.4,0.8,2.9,1.2,4.4,1.2h2.2v1.8h-28v-1.8h2.3c2.7,0,4.7-0.8,5.9-2.4c0.8-1,1.2-3.5,1.2-7.5V13.2
			c0.1-2.2-0.1-4.5-0.6-6.7c-0.4-0.9-1.1-1.6-2-2c-1.4-0.8-2.9-1.2-4.5-1.2h-2.4V1.6h28.2v1.8h-2.2c-1.5,0-3.1,0.4-4.4,1.1
			c-1,0.5-1.7,1.3-2.1,2.3c-0.5,2.1-0.7,4.3-0.6,6.5v20.3c0.7-0.6,2.9-2.7,6.7-6.2c9.7-8.8,15.5-14.8,17.5-17.7
			c0.8-1,1.2-2.2,1.3-3.4c0-0.8-0.4-1.5-1-2c-1-0.7-2.2-1-3.5-0.9h-1.5V1.5H127v1.8c-1.3,0-2.6,0.2-3.9,0.6
			c-1.5,0.5-2.9,1.2-4.3,2.1c-2.2,1.5-4.3,3.1-6.2,5c-0.7,0.7-4,4-9.9,10L92.6,31z"/>
	</g>
</g>
</svg>
