<?xml version="1.0" encoding="utf-8"?>
<!-- Generator: Adobe Illustrator 23.0.6, SVG Export Plug-In . SVG Version: 6.00 Build 0)  -->
<svg version="1.1" id="Ebene_1" xmlns="http://www.w3.org/2000/svg" xmlns:xlink="http://www.w3.org/1999/xlink" x="0px" y="0px"
	 viewBox="0 0 179.3 21.2" style="enable-background:new 0 0 179.3 21.2;" xml:space="preserve">
<style type="text/css">
	.st0{enable-background:new    ;}
</style>
<g class="st0">
	<path d="M15.7,4.1L16,7.9h-0.3C15.4,7,15,6.3,14.6,5.8c-0.7-0.7-1.6-1-2.7-1c-1.5,0-2.6,0.6-3.4,1.8c-0.6,1-1,2.2-1,3.6
		c0,1.1,0.2,2.2,0.6,3.1s1,1.6,1.7,2.1c0.7,0.4,1.4,0.7,2.1,0.7c0.4,0,0.8-0.1,1.2-0.2s0.8-0.3,1.2-0.5v-3.4c0-0.6,0-1-0.1-1.2
		c-0.1-0.2-0.2-0.3-0.4-0.4c-0.2-0.1-0.5-0.1-1-0.1V9.8h4.5v0.3h-0.2c-0.4,0-0.8,0.2-0.9,0.5c-0.1,0.2-0.2,0.6-0.2,1.3v3.6
		c-0.7,0.4-1.3,0.6-2,0.8s-1.4,0.3-2.1,0.3c-2.3,0-4-0.7-5.1-2.2C6,13.3,5.5,12,5.5,10.6c0-1,0.2-2.1,0.7-3c0.6-1.1,1.4-2,2.4-2.6
		c0.9-0.5,1.9-0.8,3-0.8c0.4,0,0.8,0,1.2,0.1c0.3,0.1,0.8,0.2,1.5,0.5c0.3,0.1,0.5,0.2,0.6,0.2c0.1,0,0.2-0.1,0.3-0.2
		c0.1-0.1,0.1-0.3,0.1-0.6H15.7z"/>
	<path d="M25.1,8.3v4.9c0,0.9,0,1.5,0.1,1.7s0.1,0.4,0.2,0.4s0.2,0.1,0.3,0.1c0.2,0,0.4,0,0.6-0.1l0.1,0.3l-2.4,1h-0.4v-1.7
		c-0.7,0.8-1.2,1.2-1.6,1.4s-0.7,0.3-1.1,0.3c-0.4,0-0.8-0.1-1.1-0.4c-0.3-0.3-0.5-0.6-0.7-1c-0.1-0.4-0.2-1-0.2-1.7V9.8
		c0-0.4,0-0.6-0.1-0.8c-0.1-0.1-0.2-0.3-0.4-0.3c-0.2-0.1-0.4-0.1-0.9-0.1V8.3h2.8v5.4c0,0.8,0.1,1.2,0.4,1.5
		c0.3,0.2,0.6,0.4,0.9,0.4c0.2,0,0.5-0.1,0.8-0.2s0.7-0.5,1.1-0.9V9.8c0-0.5-0.1-0.8-0.2-0.9c-0.2-0.2-0.5-0.2-1-0.3V8.3H25.1z
		 M20.5,4.6c0.3,0,0.5,0.1,0.7,0.3c0.2,0.2,0.3,0.4,0.3,0.7S21.4,6,21.2,6.2c-0.2,0.2-0.4,0.3-0.7,0.3c-0.3,0-0.5-0.1-0.7-0.3
		s-0.3-0.4-0.3-0.7s0.1-0.5,0.3-0.7C20,4.7,20.3,4.6,20.5,4.6z M23.6,4.6c0.3,0,0.5,0.1,0.7,0.3c0.2,0.2,0.3,0.4,0.3,0.7
		S24.4,6,24.2,6.2c-0.2,0.2-0.4,0.3-0.7,0.3c-0.3,0-0.5-0.1-0.7-0.3c-0.2-0.2-0.3-0.4-0.3-0.7s0.1-0.5,0.3-0.7
		C23.1,4.7,23.3,4.6,23.6,4.6z"/>
	<path d="M29.3,9.8C30.2,8.6,31.1,8,32,8c0.4,0,0.8,0.1,1.1,0.3s0.6,0.6,0.7,1.1c0.1,0.4,0.2,0.9,0.2,1.6v3.4c0,0.5,0,0.9,0.1,1
		c0.1,0.1,0.2,0.3,0.3,0.3s0.4,0.1,0.8,0.1v0.3h-3.9V16h0.2c0.4,0,0.6-0.1,0.8-0.2c0.1-0.1,0.2-0.3,0.3-0.5c0-0.1,0-0.4,0-0.8v-3.3
		c0-0.7-0.1-1.3-0.3-1.6s-0.5-0.5-0.9-0.5c-0.7,0-1.4,0.4-2,1.1v4.2c0,0.5,0,0.9,0.1,1c0.1,0.2,0.2,0.3,0.3,0.4s0.4,0.1,0.9,0.1v0.3
		h-3.9V16h0.2c0.4,0,0.7-0.1,0.8-0.3s0.2-0.6,0.2-1.2v-3c0-1,0-1.6-0.1-1.8s-0.1-0.4-0.2-0.4s-0.2-0.1-0.4-0.1c-0.2,0-0.4,0-0.6,0.1
		L26.6,9L29,8h0.4V9.8z"/>
	<path d="M38.1,5.6v2.6H40v0.6h-1.8v5.2c0,0.5,0.1,0.9,0.2,1.1s0.3,0.3,0.6,0.3c0.2,0,0.4-0.1,0.6-0.2c0.2-0.1,0.3-0.3,0.4-0.5h0.3
		c-0.2,0.6-0.5,1-0.9,1.3c-0.4,0.3-0.7,0.4-1.1,0.4c-0.3,0-0.5-0.1-0.8-0.2c-0.3-0.1-0.4-0.4-0.6-0.6s-0.2-0.7-0.2-1.3V8.9h-1.2V8.6
		c0.3-0.1,0.6-0.3,1-0.7c0.3-0.3,0.6-0.7,0.9-1.1c0.1-0.2,0.3-0.6,0.6-1.2H38.1z"/>
	<path d="M42.1,11.3c0,1.2,0.3,2.1,0.9,2.8s1.2,1,2,1c0.5,0,1-0.1,1.3-0.4s0.7-0.8,1-1.5l0.3,0.2c-0.1,0.8-0.5,1.5-1.1,2.2
		c-0.6,0.7-1.3,1-2.2,1c-0.9,0-1.8-0.4-2.4-1.1s-1-1.8-1-3c0-1.4,0.3-2.5,1-3.2S43.4,8,44.5,8c0.9,0,1.6,0.3,2.2,0.9
		s0.9,1.4,0.9,2.4H42.1z M42.1,10.8h3.7c0-0.5-0.1-0.9-0.2-1.1c-0.1-0.3-0.4-0.6-0.6-0.8S44.3,8.7,44,8.7c-0.5,0-0.9,0.2-1.3,0.6
		S42.1,10.1,42.1,10.8z"/>
</g>
<g class="st0">
	<path d="M50.9,8v1.8c0.7-1.2,1.3-1.8,2-1.8c0.3,0,0.6,0.1,0.8,0.3C53.9,8.5,54,8.8,54,9c0,0.2-0.1,0.4-0.2,0.6s-0.3,0.2-0.5,0.2
		c-0.2,0-0.4-0.1-0.7-0.3c-0.2-0.2-0.4-0.3-0.6-0.3c-0.1,0-0.2,0.1-0.3,0.2c-0.3,0.2-0.5,0.6-0.8,1.2v3.9c0,0.4,0.1,0.8,0.2,1
		c0.1,0.2,0.2,0.3,0.4,0.4s0.5,0.2,0.8,0.2v0.3h-4V16c0.4,0,0.7-0.1,0.9-0.2c0.1-0.1,0.2-0.2,0.3-0.4c0-0.1,0-0.4,0-0.9v-3.1
		c0-0.9,0-1.5-0.1-1.7c0-0.2-0.1-0.3-0.2-0.4c-0.1-0.1-0.2-0.1-0.4-0.1c-0.2,0-0.4,0-0.6,0.1L48.1,9l2.4-1H50.9z"/>
</g>
<g class="st0">
	<path d="M60,9.7l4.3,4.4c0.7,0.7,1.3,1.2,1.8,1.5s1,0.4,1.5,0.4v0.3H62V16c0.3,0,0.6-0.1,0.7-0.2c0.1-0.1,0.2-0.2,0.2-0.4
		s0-0.3-0.1-0.4c-0.1-0.1-0.2-0.3-0.5-0.6l-4-4.1v3.8c0,0.6,0,1,0.1,1.2c0.1,0.1,0.2,0.3,0.4,0.4c0.2,0.1,0.5,0.2,0.8,0.2H60v0.3h-5
		V16h0.4c0.5,0,0.8-0.1,1.1-0.4c0.1-0.2,0.2-0.6,0.2-1.4V6.5c0-0.6,0-1-0.1-1.2c-0.1-0.1-0.2-0.3-0.4-0.4c-0.3-0.1-0.5-0.2-0.8-0.2
		H55V4.4h5v0.3h-0.4c-0.3,0-0.5,0.1-0.8,0.2c-0.2,0.1-0.3,0.2-0.4,0.4c-0.1,0.2-0.1,0.6-0.1,1.2v3.6c0.1-0.1,0.5-0.5,1.2-1.1
		c1.7-1.6,2.7-2.7,3.1-3.2c0.2-0.2,0.2-0.4,0.2-0.6c0-0.1-0.1-0.3-0.2-0.4c-0.1-0.1-0.3-0.2-0.6-0.2h-0.3V4.4h4.3v0.3
		c-0.3,0-0.5,0-0.7,0.1c-0.2,0.1-0.5,0.2-0.8,0.4c-0.3,0.2-0.7,0.5-1.1,0.9c-0.1,0.1-0.7,0.7-1.7,1.8L60,9.7z"/>
	<path d="M70.3,8v1.8C71,8.7,71.6,8,72.3,8c0.3,0,0.6,0.1,0.8,0.3c0.2,0.2,0.3,0.4,0.3,0.7c0,0.2-0.1,0.4-0.2,0.6s-0.3,0.2-0.5,0.2
		c-0.2,0-0.4-0.1-0.7-0.3c-0.2-0.2-0.4-0.3-0.6-0.3c-0.1,0-0.2,0.1-0.3,0.2c-0.3,0.2-0.5,0.6-0.8,1.2v3.9c0,0.4,0.1,0.8,0.2,1
		c0.1,0.2,0.2,0.3,0.4,0.4s0.5,0.2,0.8,0.2v0.3h-4V16c0.4,0,0.7-0.1,0.9-0.2c0.1-0.1,0.2-0.2,0.3-0.4c0-0.1,0-0.4,0-0.9v-3.1
		c0-0.9,0-1.5-0.1-1.7c0-0.2-0.1-0.3-0.2-0.4c-0.1-0.1-0.2-0.1-0.4-0.1c-0.2,0-0.4,0-0.6,0.1L67.6,9l2.4-1H70.3z"/>
	<path d="M78.3,15.2c-0.8,0.6-1.3,1-1.5,1.1c-0.3,0.1-0.6,0.2-1,0.2c-0.5,0-1-0.2-1.3-0.6C74.1,15.6,74,15,74,14.4
		c0-0.4,0.1-0.7,0.3-1c0.2-0.4,0.6-0.8,1.2-1.1c0.6-0.4,1.6-0.8,2.9-1.3v-0.3c0-0.8-0.1-1.4-0.4-1.7c-0.2-0.3-0.6-0.4-1.1-0.4
		c-0.4,0-0.6,0.1-0.9,0.3c-0.2,0.2-0.3,0.4-0.3,0.7l0,0.5c0,0.3-0.1,0.5-0.2,0.6c-0.1,0.1-0.3,0.2-0.5,0.2c-0.2,0-0.4-0.1-0.5-0.2
		c-0.1-0.2-0.2-0.4-0.2-0.6c0-0.5,0.3-1,0.8-1.4S76.2,8,77.1,8c0.7,0,1.3,0.1,1.7,0.4c0.3,0.2,0.6,0.5,0.7,0.9
		c0.1,0.3,0.2,0.8,0.2,1.5v2.7c0,0.8,0,1.2,0,1.4s0.1,0.3,0.1,0.3s0.1,0.1,0.2,0.1c0.1,0,0.2,0,0.2-0.1c0.1-0.1,0.4-0.3,0.7-0.6v0.5
		c-0.6,0.9-1.3,1.3-1.8,1.3c-0.3,0-0.5-0.1-0.7-0.3S78.4,15.7,78.3,15.2z M78.3,14.6v-3.1c-0.9,0.4-1.4,0.6-1.7,0.7
		c-0.5,0.3-0.8,0.5-1,0.8s-0.3,0.6-0.3,0.9c0,0.4,0.1,0.8,0.4,1c0.2,0.3,0.5,0.4,0.9,0.4C77.1,15.5,77.6,15.2,78.3,14.6z"/>
	<path d="M88.6,8.3v4.9c0,0.9,0,1.5,0.1,1.7s0.1,0.4,0.2,0.4s0.2,0.1,0.3,0.1c0.2,0,0.4,0,0.6-0.1l0.1,0.3l-2.4,1h-0.4v-1.7
		c-0.7,0.8-1.2,1.2-1.6,1.4s-0.7,0.3-1.1,0.3c-0.4,0-0.8-0.1-1.1-0.4c-0.3-0.3-0.5-0.6-0.7-1c-0.1-0.4-0.2-1-0.2-1.7V9.8
		c0-0.4,0-0.6-0.1-0.8c-0.1-0.1-0.2-0.3-0.4-0.3c-0.2-0.1-0.4-0.1-0.9-0.1V8.3h2.8v5.4c0,0.8,0.1,1.2,0.4,1.5
		c0.3,0.2,0.6,0.4,0.9,0.4c0.2,0,0.5-0.1,0.8-0.2s0.7-0.5,1.1-0.9V9.8c0-0.5-0.1-0.8-0.2-0.9c-0.2-0.2-0.5-0.2-1-0.3V8.3H88.6z"/>
	<path d="M95.6,8v2.7h-0.3c-0.2-0.9-0.5-1.4-0.8-1.8s-0.8-0.5-1.3-0.5c-0.4,0-0.7,0.1-1,0.3s-0.4,0.5-0.4,0.7c0,0.3,0.1,0.6,0.3,0.8
		c0.2,0.2,0.5,0.5,1.1,0.8l1.3,0.6c1.2,0.6,1.7,1.3,1.7,2.3c0,0.7-0.3,1.3-0.8,1.8s-1.2,0.7-1.8,0.7c-0.5,0-1-0.1-1.7-0.3
		c-0.2-0.1-0.3-0.1-0.5-0.1c-0.1,0-0.2,0.1-0.3,0.2h-0.3v-2.9h0.3c0.2,0.8,0.5,1.4,0.9,1.9s1,0.6,1.5,0.6c0.4,0,0.7-0.1,1-0.4
		s0.4-0.5,0.4-0.9c0-0.4-0.1-0.7-0.4-1c-0.3-0.3-0.8-0.6-1.7-1c-0.8-0.4-1.4-0.8-1.6-1.1c-0.3-0.3-0.4-0.8-0.4-1.3
		c0-0.7,0.2-1.2,0.7-1.7c0.4-0.4,1-0.7,1.7-0.7c0.3,0,0.7,0.1,1.1,0.2c0.3,0.1,0.5,0.1,0.6,0.1c0.1,0,0.2,0,0.2-0.1
		c0.1,0,0.1-0.1,0.2-0.3H95.6z"/>
	<path d="M102.5,8v2.7h-0.3c-0.2-0.9-0.5-1.4-0.8-1.8c-0.3-0.3-0.8-0.5-1.3-0.5c-0.4,0-0.7,0.1-1,0.3c-0.2,0.2-0.4,0.5-0.4,0.7
		c0,0.3,0.1,0.6,0.3,0.8c0.2,0.2,0.5,0.5,1.1,0.8l1.3,0.6c1.2,0.6,1.7,1.3,1.7,2.3c0,0.7-0.3,1.3-0.8,1.8c-0.5,0.4-1.2,0.7-1.8,0.7
		c-0.5,0-1-0.1-1.7-0.3c-0.2-0.1-0.3-0.1-0.5-0.1c-0.1,0-0.2,0.1-0.3,0.2h-0.3v-2.9H98c0.2,0.8,0.5,1.4,0.9,1.9
		c0.5,0.4,1,0.6,1.5,0.6c0.4,0,0.7-0.1,1-0.4s0.4-0.5,0.4-0.9c0-0.4-0.1-0.7-0.4-1c-0.3-0.3-0.8-0.6-1.7-1s-1.4-0.8-1.6-1.1
		c-0.3-0.3-0.4-0.8-0.4-1.3c0-0.7,0.2-1.2,0.7-1.7s1-0.7,1.7-0.7c0.3,0,0.7,0.1,1.1,0.2c0.3,0.1,0.5,0.1,0.6,0.1
		c0.1,0,0.2,0,0.2-0.1s0.1-0.1,0.2-0.3H102.5z"/>
	<path d="M105.9,14.6c0.3,0,0.5,0.1,0.7,0.3c0.2,0.2,0.3,0.4,0.3,0.7s-0.1,0.5-0.3,0.7c-0.2,0.2-0.4,0.3-0.7,0.3s-0.5-0.1-0.7-0.3
		c-0.2-0.2-0.3-0.4-0.3-0.7c0-0.3,0.1-0.5,0.3-0.7C105.4,14.7,105.6,14.6,105.9,14.6z"/>
</g>
<g class="st0">
	<path d="M116.2,4.1v4.1h-0.3c-0.1-0.8-0.3-1.4-0.6-1.9c-0.3-0.5-0.6-0.8-1.1-1.1c-0.5-0.3-1-0.4-1.5-0.4c-0.6,0-1.1,0.2-1.5,0.6
		s-0.6,0.8-0.6,1.3c0,0.4,0.1,0.7,0.4,1c0.4,0.4,1.2,1,2.5,1.8c1.1,0.6,1.8,1.1,2.2,1.4c0.4,0.3,0.7,0.7,0.9,1.1
		c0.2,0.4,0.3,0.9,0.3,1.4c0,0.9-0.3,1.7-1,2.3s-1.6,1-2.6,1c-0.3,0-0.7,0-1-0.1c-0.2,0-0.5-0.1-1.1-0.3c-0.6-0.2-0.9-0.3-1.1-0.3
		c-0.1,0-0.3,0-0.3,0.1s-0.1,0.3-0.2,0.5h-0.3v-4.1h0.3c0.1,0.9,0.3,1.5,0.6,1.9s0.6,0.8,1.2,1.1s1.1,0.4,1.7,0.4
		c0.7,0,1.3-0.2,1.7-0.6s0.6-0.8,0.6-1.4c0-0.3-0.1-0.6-0.2-0.9c-0.2-0.3-0.4-0.6-0.7-0.8c-0.2-0.2-0.8-0.5-1.8-1.1s-1.7-1-2.1-1.4
		s-0.7-0.7-1-1.1c-0.2-0.4-0.3-0.9-0.3-1.4c0-0.9,0.3-1.6,1-2.2c0.6-0.6,1.5-0.9,2.5-0.9c0.6,0,1.3,0.2,2,0.5
		c0.3,0.1,0.5,0.2,0.7,0.2c0.2,0,0.3,0,0.4-0.1c0.1-0.1,0.2-0.3,0.2-0.5H116.2z"/>
</g>
<g class="st0">
	<path d="M124.4,13.3c-0.2,1.1-0.6,1.9-1.2,2.4s-1.3,0.9-2.1,0.9c-0.9,0-1.7-0.4-2.3-1.2s-1-1.8-1-3.1c0-1.3,0.4-2.3,1.1-3.1
		s1.6-1.2,2.7-1.2c0.8,0,1.4,0.2,1.9,0.6c0.5,0.4,0.7,0.9,0.7,1.3c0,0.2-0.1,0.4-0.2,0.5s-0.3,0.2-0.6,0.2c-0.3,0-0.6-0.1-0.8-0.3
		c-0.1-0.1-0.2-0.4-0.2-0.7c0-0.3-0.1-0.6-0.3-0.8c-0.2-0.2-0.5-0.3-0.8-0.3c-0.6,0-1,0.2-1.4,0.7c-0.5,0.6-0.7,1.3-0.7,2.3
		c0,1,0.2,1.8,0.7,2.5c0.5,0.7,1.1,1.1,1.9,1.1c0.6,0,1.1-0.2,1.5-0.6c0.3-0.3,0.6-0.8,0.9-1.5L124.4,13.3z"/>
	<path d="M127.8,3.8v5.9c0.6-0.7,1.1-1.2,1.5-1.4s0.7-0.3,1.1-0.3c0.4,0,0.8,0.1,1.2,0.4s0.6,0.6,0.7,1.2c0.1,0.4,0.2,1.1,0.2,2.1
		v2.8c0,0.5,0,0.9,0.1,1c0.1,0.1,0.2,0.3,0.3,0.3c0.1,0.1,0.4,0.1,0.8,0.1v0.3h-3.9V16h0.2c0.4,0,0.6-0.1,0.8-0.2s0.2-0.3,0.3-0.5
		c0-0.1,0-0.4,0-0.8v-2.8c0-0.9,0-1.5-0.1-1.7c-0.1-0.3-0.2-0.5-0.4-0.6s-0.4-0.2-0.7-0.2c-0.3,0-0.6,0.1-0.9,0.2s-0.7,0.5-1.1,0.9
		v4.3c0,0.6,0,0.9,0.1,1c0.1,0.1,0.2,0.2,0.3,0.3c0.2,0.1,0.4,0.1,0.8,0.1v0.3h-3.9V16c0.4,0,0.6-0.1,0.8-0.2
		c0.1-0.1,0.2-0.2,0.3-0.3s0.1-0.5,0.1-1V7.2c0-0.9,0-1.5-0.1-1.7s-0.1-0.4-0.2-0.4C126,5,125.9,5,125.8,5c-0.1,0-0.3,0-0.6,0.1
		l-0.1-0.3l2.4-1H127.8z"/>
	<path d="M136.7,9.8c0.6-0.6,0.9-0.9,1-1c0.3-0.2,0.5-0.4,0.8-0.5s0.6-0.2,0.9-0.2c0.5,0,0.9,0.1,1.3,0.4s0.6,0.7,0.7,1.3
		c0.6-0.7,1.1-1.2,1.5-1.4s0.8-0.3,1.3-0.3c0.4,0,0.8,0.1,1.1,0.3c0.3,0.2,0.6,0.6,0.8,1.1c0.1,0.3,0.2,0.9,0.2,1.6v3.5
		c0,0.5,0,0.8,0.1,1c0.1,0.1,0.2,0.2,0.3,0.3s0.4,0.1,0.8,0.1v0.3h-3.9V16h0.2c0.3,0,0.6-0.1,0.8-0.2c0.1-0.1,0.2-0.2,0.3-0.4
		c0-0.1,0-0.4,0-0.9v-3.5c0-0.7-0.1-1.1-0.2-1.4c-0.2-0.4-0.6-0.6-1.1-0.6c-0.3,0-0.6,0.1-0.9,0.2s-0.7,0.4-1.1,0.9l0,0.1l0,0.4v3.8
		c0,0.6,0,0.9,0.1,1c0.1,0.1,0.2,0.2,0.3,0.3s0.5,0.1,0.9,0.1v0.3h-4V16c0.4,0,0.7-0.1,0.9-0.2s0.3-0.3,0.3-0.5c0-0.1,0-0.4,0-0.9
		v-3.5c0-0.7-0.1-1.1-0.3-1.4c-0.3-0.4-0.6-0.6-1.1-0.6c-0.3,0-0.6,0.1-0.9,0.3c-0.5,0.3-0.8,0.5-1.1,0.9v4.3c0,0.5,0,0.9,0.1,1
		s0.2,0.3,0.3,0.4s0.4,0.1,0.9,0.1v0.3H134V16c0.4,0,0.6,0,0.8-0.1s0.3-0.2,0.3-0.4s0.1-0.5,0.1-1v-3.1c0-0.9,0-1.5-0.1-1.7
		c0-0.2-0.1-0.3-0.2-0.4c-0.1-0.1-0.2-0.1-0.4-0.1c-0.2,0-0.4,0-0.6,0.1L133.9,9l2.4-1h0.4V9.8z"/>
	<path d="M154.9,8.3v4.9c0,0.9,0,1.5,0.1,1.7s0.1,0.4,0.2,0.4s0.2,0.1,0.3,0.1c0.2,0,0.4,0,0.6-0.1l0.1,0.3l-2.4,1h-0.4v-1.7
		c-0.7,0.8-1.2,1.2-1.6,1.4c-0.4,0.2-0.7,0.3-1.1,0.3c-0.4,0-0.8-0.1-1.1-0.4s-0.6-0.6-0.7-1c-0.1-0.4-0.2-1-0.2-1.7V9.8
		c0-0.4,0-0.6-0.1-0.8s-0.2-0.3-0.4-0.3s-0.4-0.1-0.9-0.1V8.3h2.8v5.4c0,0.8,0.1,1.2,0.4,1.5s0.6,0.4,0.9,0.4c0.2,0,0.5-0.1,0.8-0.2
		s0.7-0.5,1.1-0.9V9.8c0-0.5-0.1-0.8-0.2-0.9c-0.2-0.2-0.5-0.2-1-0.3V8.3H154.9z"/>
	<path d="M163.6,13.3c-0.2,1.1-0.6,1.9-1.2,2.4c-0.6,0.6-1.3,0.9-2.1,0.9c-0.9,0-1.7-0.4-2.3-1.2s-1-1.8-1-3.1
		c0-1.3,0.4-2.3,1.1-3.1c0.7-0.8,1.6-1.2,2.7-1.2c0.8,0,1.4,0.2,1.9,0.6s0.7,0.9,0.7,1.3c0,0.2-0.1,0.4-0.2,0.5s-0.3,0.2-0.6,0.2
		c-0.3,0-0.6-0.1-0.8-0.3c-0.1-0.1-0.2-0.4-0.2-0.7c0-0.3-0.1-0.6-0.3-0.8c-0.2-0.2-0.5-0.3-0.8-0.3c-0.6,0-1,0.2-1.4,0.7
		c-0.5,0.6-0.7,1.3-0.7,2.3c0,1,0.2,1.8,0.7,2.5c0.5,0.7,1.1,1.1,1.9,1.1c0.6,0,1.1-0.2,1.5-0.6c0.3-0.3,0.6-0.8,0.9-1.5L163.6,13.3
		z"/>
	<path d="M167,3.8v8l2-1.9c0.4-0.4,0.7-0.7,0.7-0.8c0-0.1,0.1-0.1,0.1-0.2c0-0.1,0-0.2-0.1-0.3s-0.3-0.1-0.5-0.1V8.3h3.4v0.3
		c-0.5,0-0.9,0.1-1.2,0.2c-0.3,0.1-0.7,0.4-1,0.7l-2,1.9l2,2.6c0.6,0.7,0.9,1.2,1.1,1.4c0.3,0.3,0.5,0.5,0.7,0.5
		c0.1,0.1,0.4,0.1,0.7,0.1v0.3h-3.8V16c0.2,0,0.4,0,0.4-0.1c0.1-0.1,0.1-0.1,0.1-0.3c0-0.1-0.1-0.4-0.3-0.7l-2.4-3.2v2.7
		c0,0.5,0,0.9,0.1,1c0.1,0.2,0.2,0.3,0.3,0.4c0.1,0.1,0.4,0.1,0.9,0.1v0.3h-4V16c0.4,0,0.7-0.1,0.9-0.2c0.1-0.1,0.2-0.2,0.3-0.3
		c0.1-0.2,0.1-0.5,0.1-1V7.2c0-0.9,0-1.5-0.1-1.7c0-0.2-0.1-0.4-0.2-0.4S165.1,5,165,5c-0.1,0-0.3,0-0.5,0.1l-0.1-0.3l2.3-1H167z"/>
</g>
<g class="st0">
	<path d="M175.2,14.6c0.3,0,0.5,0.1,0.7,0.3c0.2,0.2,0.3,0.4,0.3,0.7s-0.1,0.5-0.3,0.7s-0.4,0.3-0.7,0.3c-0.3,0-0.5-0.1-0.7-0.3
		s-0.3-0.4-0.3-0.7c0-0.3,0.1-0.5,0.3-0.7S174.9,14.6,175.2,14.6z"/>
</g>
</svg>
