<svg id="Ebene_1" data-name="Ebene 1" xmlns="http://www.w3.org/2000/svg" xmlns:xlink="http://www.w3.org/1999/xlink" viewBox="0 0 348.12 25.54"><defs><style>.cls-1{fill:none;}.cls-2{clip-path:url(#clip-path);}.cls-3{fill:#1d1d1b;}</style><clipPath id="clip-path" transform="translate(-115.14 -271.62)"><rect class="cls-1" x="92.41" y="259.37" width="446.39" height="49.28"/></clipPath></defs><title>Unbenannt-4</title><g class="cls-2"><path class="cls-3" d="M136,272.23l.61,7.53H136a10.31,10.31,0,0,0-2.41-4.24,7.55,7.55,0,0,0-5.47-2.06,7.76,7.76,0,0,0-6.92,3.61,12.88,12.88,0,0,0-2,7.24,14.45,14.45,0,0,0,1.32,6.22,9.23,9.23,0,0,0,3.45,4.12,8.26,8.26,0,0,0,4.39,1.31,9.65,9.65,0,0,0,4.92-1.32v-6.89a6.4,6.4,0,0,0-.27-2.34,1.89,1.89,0,0,0-.85-.85,4.92,4.92,0,0,0-2-.29v-.66h9.23v.66h-.44a2,2,0,0,0-1.88.92,6.06,6.06,0,0,0-.35,2.56v7.3a17.79,17.79,0,0,1-4,1.6,17.5,17.5,0,0,1-4.38.51q-6.91,0-10.49-4.43a11.81,11.81,0,0,1-2.69-7.67,13.45,13.45,0,0,1,6.43-11.3,12.07,12.07,0,0,1,6.19-1.53,12.26,12.26,0,0,1,2.36.21,20.5,20.5,0,0,1,3,.94,4.9,4.9,0,0,0,1.31.36.72.72,0,0,0,.58-.3,2.53,2.53,0,0,0,.29-1.21Z" transform="translate(-115.14 -271.62)"/><path class="cls-3" d="M155.11,280.51v9.76a24.36,24.36,0,0,0,.13,3.42,1.61,1.61,0,0,0,.42.87,1,1,0,0,0,.68.24,3.14,3.14,0,0,0,1.23-.3l.25.62-4.82,2h-.79V293.7a14.6,14.6,0,0,1-3.17,2.83,4.88,4.88,0,0,1-2.3.58,3.68,3.68,0,0,1-2.34-.79,3.94,3.94,0,0,1-1.38-2,12.06,12.06,0,0,1-.39-3.48v-7.19a3.43,3.43,0,0,0-.25-1.58,1.61,1.61,0,0,0-.73-.68,4.26,4.26,0,0,0-1.75-.22v-.65h5.65v10.78c0,1.5.26,2.48.78,2.95a2.71,2.71,0,0,0,1.89.7,3.88,3.88,0,0,0,1.71-.47,9.38,9.38,0,0,0,2.28-1.81v-9.12a2.61,2.61,0,0,0-.5-1.86,3.33,3.33,0,0,0-2.09-.52v-.65Zm-9.37-7.38a1.85,1.85,0,0,1,1.36.56,1.87,1.87,0,0,1,.56,1.35,1.91,1.91,0,0,1-1.9,1.9,1.87,1.87,0,0,1-1.36-.55,1.84,1.84,0,0,1-.56-1.35,1.87,1.87,0,0,1,.56-1.35A1.8,1.8,0,0,1,145.74,273.13Zm6.2,0a1.84,1.84,0,0,1,1.35.56,1.87,1.87,0,0,1,.55,1.35,1.88,1.88,0,0,1-1.9,1.9,1.87,1.87,0,0,1-1.35-.55A1.84,1.84,0,0,1,150,275a1.91,1.91,0,0,1,1.91-1.91Z" transform="translate(-115.14 -271.62)"/><path class="cls-3" d="M163.69,283.45c1.88-2.28,3.68-3.41,5.39-3.41a3.87,3.87,0,0,1,2.27.66,4.39,4.39,0,0,1,1.51,2.17,9.93,9.93,0,0,1,.39,3.23V293a5.66,5.66,0,0,0,.25,2.08,1.36,1.36,0,0,0,.62.68,3.46,3.46,0,0,0,1.59.25v.63h-8V296h.33a2.64,2.64,0,0,0,1.57-.34,1.83,1.83,0,0,0,.63-1,10,10,0,0,0,.07-1.66v-6.59a6.71,6.71,0,0,0-.57-3.19,2,2,0,0,0-1.93-1,5.79,5.79,0,0,0-4.16,2.28V293a6.15,6.15,0,0,0,.19,2,1.59,1.59,0,0,0,.68.74,4.13,4.13,0,0,0,1.75.24v.63h-8V296h.35a1.92,1.92,0,0,0,1.67-.62,4.65,4.65,0,0,0,.43-2.39v-6a25.16,25.16,0,0,0-.14-3.54,1.5,1.5,0,0,0-.4-.86,1.1,1.1,0,0,0-.73-.22,3.29,3.29,0,0,0-1.18.26l-.26-.63,4.85-2h.76Z" transform="translate(-115.14 -271.62)"/><path class="cls-3" d="M181.67,275.22v5.29h3.76v1.23h-3.76v10.44a3.48,3.48,0,0,0,.45,2.11,1.41,1.41,0,0,0,1.15.55,2,2,0,0,0,1.12-.36,2.3,2.3,0,0,0,.85-1.07h.68a5.53,5.53,0,0,1-1.74,2.6,3.75,3.75,0,0,1-2.32.87,3.11,3.11,0,0,1-1.58-.45,2.73,2.73,0,0,1-1.14-1.28,6.7,6.7,0,0,1-.37-2.58V281.74h-2.55v-.58a6.77,6.77,0,0,0,2-1.31,10.32,10.32,0,0,0,1.8-2.19,19.49,19.49,0,0,0,1.12-2.44Z" transform="translate(-115.14 -271.62)"/><path class="cls-3" d="M189.7,286.58a8.28,8.28,0,0,0,1.74,5.62,5.3,5.3,0,0,0,4.13,2,4.45,4.45,0,0,0,2.75-.87,6.34,6.34,0,0,0,2-3l.55.35a8.43,8.43,0,0,1-2.14,4.39,5.74,5.74,0,0,1-4.45,2,6.52,6.52,0,0,1-5-2.26,8.69,8.69,0,0,1-2.06-6.08,9.19,9.19,0,0,1,2.11-6.44,6.93,6.93,0,0,1,5.32-2.31,5.94,5.94,0,0,1,4.45,1.78,6.55,6.55,0,0,1,1.74,4.78Zm0-1h7.46a7.15,7.15,0,0,0-.37-2.18,3.55,3.55,0,0,0-1.31-1.55,3.35,3.35,0,0,0-1.82-.56,3.64,3.64,0,0,0-2.61,1.13A4.93,4.93,0,0,0,189.7,285.56Z" transform="translate(-115.14 -271.62)"/><path class="cls-3" d="M207.69,280v3.62c1.34-2.42,2.73-3.62,4.14-3.62a2.21,2.21,0,0,1,1.6.59,1.81,1.81,0,0,1,.64,1.36,1.63,1.63,0,0,1-.46,1.16,1.49,1.49,0,0,1-1.09.47,2.34,2.34,0,0,1-1.38-.6,2.26,2.26,0,0,0-1.13-.61,1.06,1.06,0,0,0-.69.35,8.35,8.35,0,0,0-1.63,2.37v7.72a4.8,4.8,0,0,0,.33,2,1.77,1.77,0,0,0,.81.79,3.41,3.41,0,0,0,1.67.32v.63h-8.25V296a3.41,3.41,0,0,0,1.83-.39,1.49,1.49,0,0,0,.62-.89,9.28,9.28,0,0,0,.08-1.71v-6.24a25.66,25.66,0,0,0-.11-3.35,1.4,1.4,0,0,0-.42-.78,1.22,1.22,0,0,0-.77-.24,3.4,3.4,0,0,0-1.23.26l-.17-.63,4.87-2Z" transform="translate(-115.14 -271.62)"/><path class="cls-3" d="M224.6,283.39l8.78,8.74a16.57,16.57,0,0,0,3.7,2.95,7.84,7.84,0,0,0,3,.88v.65H228.8V296a2.39,2.39,0,0,0,1.46-.34,1,1,0,0,0,.45-.76,1.67,1.67,0,0,0-.16-.76,7.26,7.26,0,0,0-1.1-1.25l-8.23-8.14v7.68a8,8,0,0,0,.23,2.4,1.57,1.57,0,0,0,.74.75,3.21,3.21,0,0,0,1.6.42h.81v.65H214.44V296h.84a2.52,2.52,0,0,0,2.14-.86,5.34,5.34,0,0,0,.43-2.71V277a8.16,8.16,0,0,0-.23-2.41,1.64,1.64,0,0,0-.72-.74,3.37,3.37,0,0,0-1.62-.42h-.84v-.65H224.6v.65h-.81a3.39,3.39,0,0,0-1.6.4,1.51,1.51,0,0,0-.76.85,8,8,0,0,0-.21,2.32v7.29l2.41-2.23a53.9,53.9,0,0,0,6.31-6.38,2.27,2.27,0,0,0,.47-1.23.89.89,0,0,0-.37-.71,1.91,1.91,0,0,0-1.24-.31h-.55v-.65H237v.65a5.09,5.09,0,0,0-1.41.21,7.33,7.33,0,0,0-1.55.75,14.45,14.45,0,0,0-2.25,1.78c-.26.23-1.45,1.44-3.57,3.6Z" transform="translate(-115.14 -271.62)"/><path class="cls-3" d="M245.67,280v3.62c1.35-2.42,2.73-3.62,4.15-3.62a2.23,2.23,0,0,1,1.6.59,1.8,1.8,0,0,1,.63,1.36,1.62,1.62,0,0,1-.45,1.16,1.49,1.49,0,0,1-1.09.47,2.34,2.34,0,0,1-1.38-.6,2.24,2.24,0,0,0-1.14-.61,1,1,0,0,0-.68.35,8.34,8.34,0,0,0-1.64,2.37v7.72a4.63,4.63,0,0,0,.34,2,1.8,1.8,0,0,0,.8.79,3.46,3.46,0,0,0,1.67.32v.63h-8.24V296a3.41,3.41,0,0,0,1.83-.39,1.44,1.44,0,0,0,.61-.89,8.89,8.89,0,0,0,.09-1.71v-6.24a27.8,27.8,0,0,0-.11-3.35,1.35,1.35,0,0,0-.43-.78,1.19,1.19,0,0,0-.76-.24,3.4,3.4,0,0,0-1.23.26l-.18-.63,4.87-2Z" transform="translate(-115.14 -271.62)"/><path class="cls-3" d="M262.07,294.29a26.62,26.62,0,0,1-3.11,2.22,4.8,4.8,0,0,1-2,.44,3.6,3.6,0,0,1-2.75-1.15,4.18,4.18,0,0,1-1.08-3,3.82,3.82,0,0,1,.52-2,6.94,6.94,0,0,1,2.51-2.25,39.68,39.68,0,0,1,5.93-2.57v-.63a5.23,5.23,0,0,0-.76-3.3,2.76,2.76,0,0,0-2.23-.9,2.48,2.48,0,0,0-1.75.6,1.78,1.78,0,0,0-.67,1.37l0,1a1.75,1.75,0,0,1-.41,1.25,1.44,1.44,0,0,1-1.08.44,1.38,1.38,0,0,1-1.06-.46,1.78,1.78,0,0,1-.42-1.25,3.62,3.62,0,0,1,1.55-2.78,6.7,6.7,0,0,1,4.34-1.26,7.57,7.57,0,0,1,3.52.72,3.32,3.32,0,0,1,1.53,1.7,9.76,9.76,0,0,1,.31,3.1V291a24.29,24.29,0,0,0,.09,2.82,1.24,1.24,0,0,0,.29.7.67.67,0,0,0,.47.17,1,1,0,0,0,.49-.12,11.2,11.2,0,0,0,1.42-1.28v1q-2,2.64-3.76,2.64a1.71,1.71,0,0,1-1.37-.6A3.22,3.22,0,0,1,262.07,294.29Zm0-1.14V287a35.6,35.6,0,0,0-3.43,1.49,5.93,5.93,0,0,0-2,1.62,3.09,3.09,0,0,0-.6,1.84,3,3,0,0,0,.76,2.1,2.27,2.27,0,0,0,1.74.84C259.45,294.91,260.62,294.32,262.07,293.15Z" transform="translate(-115.14 -271.62)"/><path class="cls-3" d="M283,280.51v9.76a26.16,26.16,0,0,0,.13,3.42,1.55,1.55,0,0,0,.43.87,1,1,0,0,0,.67.24,3.06,3.06,0,0,0,1.23-.3l.25.62-4.82,2h-.79V293.7a14.86,14.86,0,0,1-3.16,2.83,4.94,4.94,0,0,1-2.3.58,3.68,3.68,0,0,1-2.35-.79,4.06,4.06,0,0,1-1.38-2,12.06,12.06,0,0,1-.39-3.48v-7.19a3.61,3.61,0,0,0-.24-1.58,1.72,1.72,0,0,0-.73-.68,4.32,4.32,0,0,0-1.75-.22v-.65h5.64v10.78c0,1.5.26,2.48.78,2.95a2.71,2.71,0,0,0,1.89.7,3.88,3.88,0,0,0,1.72-.47,9.56,9.56,0,0,0,2.27-1.81v-9.12a2.56,2.56,0,0,0-.5-1.86,3.29,3.29,0,0,0-2.08-.52v-.65Z" transform="translate(-115.14 -271.62)"/><path class="cls-3" d="M297.33,280v5.48h-.58A7,7,0,0,0,295,282a3.83,3.83,0,0,0-2.66-.94,3,3,0,0,0-2,.65,1.93,1.93,0,0,0-.76,1.45,2.59,2.59,0,0,0,.57,1.68,6.24,6.24,0,0,0,2.21,1.53l2.57,1.25q3.57,1.74,3.57,4.59a4.36,4.36,0,0,1-1.66,3.54,5.76,5.76,0,0,1-3.72,1.35,12.89,12.89,0,0,1-3.38-.53,3.3,3.3,0,0,0-1-.18.69.69,0,0,0-.63.46h-.58v-5.75h.58a6.59,6.59,0,0,0,1.88,3.71,4.55,4.55,0,0,0,3.11,1.25,2.81,2.81,0,0,0,2-.71,2.27,2.27,0,0,0,.76-1.72,2.72,2.72,0,0,0-.85-2,15.16,15.16,0,0,0-3.4-2.09,10,10,0,0,1-3.34-2.28,4,4,0,0,1-.79-2.53,4.46,4.46,0,0,1,1.36-3.33,4.84,4.84,0,0,1,3.53-1.33,8.23,8.23,0,0,1,2.3.4,5.44,5.44,0,0,0,1.19.27.7.7,0,0,0,.44-.13,1.57,1.57,0,0,0,.37-.54Z" transform="translate(-115.14 -271.62)"/><path class="cls-3" d="M311.34,280v5.48h-.58a7,7,0,0,0-1.71-3.51,3.83,3.83,0,0,0-2.66-.94,3,3,0,0,0-2,.65,1.93,1.93,0,0,0-.76,1.45,2.59,2.59,0,0,0,.57,1.68,6.24,6.24,0,0,0,2.21,1.53l2.57,1.25q3.57,1.74,3.57,4.59a4.36,4.36,0,0,1-1.66,3.54,5.76,5.76,0,0,1-3.72,1.35,12.89,12.89,0,0,1-3.38-.53,3.3,3.3,0,0,0-.95-.18.69.69,0,0,0-.63.46h-.58v-5.75h.58a6.59,6.59,0,0,0,1.88,3.71,4.55,4.55,0,0,0,3.11,1.25,2.81,2.81,0,0,0,2-.71,2.27,2.27,0,0,0,.76-1.72,2.72,2.72,0,0,0-.85-2,15.16,15.16,0,0,0-3.4-2.09,10,10,0,0,1-3.34-2.28,4,4,0,0,1-.79-2.53,4.46,4.46,0,0,1,1.36-3.33,4.84,4.84,0,0,1,3.53-1.33,8.23,8.23,0,0,1,2.3.4,5.44,5.44,0,0,0,1.19.27.7.7,0,0,0,.44-.13,1.57,1.57,0,0,0,.37-.54Z" transform="translate(-115.14 -271.62)"/><path class="cls-3" d="M318.32,293.2a1.87,1.87,0,0,1,1.39.57,1.9,1.9,0,0,1,.56,1.38,1.88,1.88,0,0,1-.57,1.38,1.93,1.93,0,0,1-2.76,0,1.88,1.88,0,0,1-.57-1.38,1.85,1.85,0,0,1,.57-1.38A1.88,1.88,0,0,1,318.32,293.2Z" transform="translate(-115.14 -271.62)"/><path class="cls-3" d="M339.33,272.23v8.25h-.65a10.06,10.06,0,0,0-1.14-3.78,5.92,5.92,0,0,0-2.33-2.24,6.41,6.41,0,0,0-3.12-.82,4.29,4.29,0,0,0-3,1.11,3.44,3.44,0,0,0-1.19,2.54,3,3,0,0,0,.75,2,19.63,19.63,0,0,0,5.19,3.52,35.18,35.18,0,0,1,4.56,2.75,6.75,6.75,0,0,1,1.88,2.26,5.9,5.9,0,0,1,.66,2.72,6.17,6.17,0,0,1-2.1,4.67,7.64,7.64,0,0,1-5.41,2,11,11,0,0,1-1.95-.16,20.56,20.56,0,0,1-2.26-.64,10.13,10.13,0,0,0-2.17-.56.9.9,0,0,0-.69.27,2.06,2.06,0,0,0-.38,1.09h-.65V289H326a11.81,11.81,0,0,0,1.23,3.85,5.93,5.93,0,0,0,2.37,2.11,7.23,7.23,0,0,0,3.48.85,5,5,0,0,0,3.48-1.16,3.6,3.6,0,0,0,1.27-2.75,3.74,3.74,0,0,0-.48-1.77,5.31,5.31,0,0,0-1.51-1.67,41.31,41.31,0,0,0-3.74-2.24,35.6,35.6,0,0,1-4.35-2.74,7.23,7.23,0,0,1-2-2.25,5.52,5.52,0,0,1-.67-2.7,5.87,5.87,0,0,1,2-4.42,7,7,0,0,1,5-1.86,10.08,10.08,0,0,1,4,.93,3.91,3.91,0,0,0,1.38.44,1,1,0,0,0,.75-.27,2.23,2.23,0,0,0,.47-1.1Z" transform="translate(-115.14 -271.62)"/><path class="cls-3" d="M357.64,290.5a8.7,8.7,0,0,1-2.54,4.89,6.06,6.06,0,0,1-9-.59,9,9,0,0,1-2-6.22,8.61,8.61,0,0,1,2.26-6.17,7.25,7.25,0,0,1,5.43-2.37,6,6,0,0,1,3.9,1.25,3.48,3.48,0,0,1,1.53,2.61,1.48,1.48,0,0,1-.43,1.09,1.7,1.7,0,0,1-1.21.41,1.85,1.85,0,0,1-1.56-.67,2.82,2.82,0,0,1-.4-1.41,2.3,2.3,0,0,0-.71-1.58,2.54,2.54,0,0,0-1.7-.53,3.47,3.47,0,0,0-2.83,1.31,6.89,6.89,0,0,0-1.43,4.55,9.17,9.17,0,0,0,1.42,5.09,4.33,4.33,0,0,0,3.82,2.2,4.62,4.62,0,0,0,3.09-1.17,7.9,7.9,0,0,0,1.88-2.94Z" transform="translate(-115.14 -271.62)"/><path class="cls-3" d="M364.68,271.62v11.77a13.69,13.69,0,0,1,3.09-2.75,4.86,4.86,0,0,1,2.28-.6,3.78,3.78,0,0,1,2.36.75,4.5,4.5,0,0,1,1.46,2.38,17,17,0,0,1,.33,4.11V293a5.86,5.86,0,0,0,.25,2.1,1.37,1.37,0,0,0,.6.66,3.24,3.24,0,0,0,1.54.25v.63h-7.91V296h.37a2.66,2.66,0,0,0,1.57-.34,1.87,1.87,0,0,0,.61-1,13.25,13.25,0,0,0,0-1.66v-5.69a13.76,13.76,0,0,0-.27-3.46,2.3,2.3,0,0,0-.87-1.24,2.45,2.45,0,0,0-1.44-.42,4.14,4.14,0,0,0-1.79.46,8.51,8.51,0,0,0-2.23,1.85V293a6.78,6.78,0,0,0,.18,2.06,1.47,1.47,0,0,0,.69.68,3.93,3.93,0,0,0,1.73.27v.63h-8V296a3.58,3.58,0,0,0,1.68-.33,1.25,1.25,0,0,0,.57-.67,6.14,6.14,0,0,0,.21-2V278.4a25.79,25.79,0,0,0-.13-3.39,1.53,1.53,0,0,0-.41-.86,1.1,1.1,0,0,0-.73-.23,4.2,4.2,0,0,0-1.19.28l-.25-.61,4.82-2Z" transform="translate(-115.14 -271.62)"/><path class="cls-3" d="M382.73,283.46c1.17-1.17,1.86-1.84,2.07-2a6.29,6.29,0,0,1,1.71-1,4.73,4.73,0,0,1,1.81-.37,4,4,0,0,1,2.6.88,4.32,4.32,0,0,1,1.46,2.54,11.92,11.92,0,0,1,3.06-2.76A5.39,5.39,0,0,1,398,280a4,4,0,0,1,2.28.66,4.32,4.32,0,0,1,1.57,2.15,9.65,9.65,0,0,1,.39,3.2V293a6.41,6.41,0,0,0,.23,2.08,1.47,1.47,0,0,0,.65.66,3.3,3.3,0,0,0,1.55.27v.63h-7.95V296h.33a2.79,2.79,0,0,0,1.62-.4,1.6,1.6,0,0,0,.58-.9,10.92,10.92,0,0,0,.07-1.71v-6.92a6,6,0,0,0-.47-2.78,2.38,2.38,0,0,0-2.2-1.12,4.16,4.16,0,0,0-1.87.46,10.16,10.16,0,0,0-2.28,1.73l0,.2,0,.75V293a6.33,6.33,0,0,0,.19,2.06,1.47,1.47,0,0,0,.69.68,4,4,0,0,0,1.74.27v.63H387V296a3.65,3.65,0,0,0,1.84-.32,1.63,1.63,0,0,0,.69-1,9,9,0,0,0,.09-1.74v-6.92a5.2,5.2,0,0,0-.58-2.83,2.48,2.48,0,0,0-2.16-1.13,3.88,3.88,0,0,0-1.88.51,7.44,7.44,0,0,0-2.25,1.74V293A5.9,5.9,0,0,0,383,295a1.45,1.45,0,0,0,.65.71,4.16,4.16,0,0,0,1.75.24v.63h-8V296a3.51,3.51,0,0,0,1.55-.24,1.54,1.54,0,0,0,.67-.75,5.9,5.9,0,0,0,.23-2v-6.15a23.05,23.05,0,0,0-.16-3.43,1.4,1.4,0,0,0-.39-.8,1.1,1.1,0,0,0-.72-.21,3.29,3.29,0,0,0-1.18.26l-.26-.63,4.85-2h.76Z" transform="translate(-115.14 -271.62)"/><path class="cls-3" d="M420.06,280.51v9.76a23.68,23.68,0,0,0,.14,3.42,1.48,1.48,0,0,0,.42.87,1,1,0,0,0,.67.24,3.06,3.06,0,0,0,1.23-.3l.25.62-4.82,2h-.79V293.7a14.62,14.62,0,0,1-3.16,2.83,4.91,4.91,0,0,1-2.3.58,3.68,3.68,0,0,1-2.35-.79,4.06,4.06,0,0,1-1.38-2,12.06,12.06,0,0,1-.39-3.48v-7.19a3.61,3.61,0,0,0-.24-1.58,1.72,1.72,0,0,0-.73-.68,4.29,4.29,0,0,0-1.75-.22v-.65h5.64v10.78c0,1.5.26,2.48.78,2.95a2.75,2.75,0,0,0,1.89.7,3.88,3.88,0,0,0,1.72-.47,9.36,9.36,0,0,0,2.27-1.81v-9.12a2.56,2.56,0,0,0-.5-1.86,3.29,3.29,0,0,0-2.08-.52v-.65Z" transform="translate(-115.14 -271.62)"/><path class="cls-3" d="M437.62,290.5a8.7,8.7,0,0,1-2.54,4.89,6.06,6.06,0,0,1-9-.59,9,9,0,0,1-2-6.22,8.61,8.61,0,0,1,2.26-6.17,7.25,7.25,0,0,1,5.43-2.37,6,6,0,0,1,3.9,1.25,3.48,3.48,0,0,1,1.53,2.61,1.48,1.48,0,0,1-.43,1.09,1.7,1.7,0,0,1-1.21.41,1.85,1.85,0,0,1-1.56-.67,2.82,2.82,0,0,1-.4-1.41,2.3,2.3,0,0,0-.71-1.58,2.54,2.54,0,0,0-1.7-.53,3.47,3.47,0,0,0-2.83,1.31,6.89,6.89,0,0,0-1.43,4.55,9.17,9.17,0,0,0,1.42,5.09,4.33,4.33,0,0,0,3.82,2.2,4.62,4.62,0,0,0,3.09-1.17,7.9,7.9,0,0,0,1.88-2.94Z" transform="translate(-115.14 -271.62)"/><path class="cls-3" d="M444.69,271.62v16l4.1-3.75a13.78,13.78,0,0,0,1.51-1.51.78.78,0,0,0,.14-.42.81.81,0,0,0-.29-.61,1.6,1.6,0,0,0-1-.29v-.56h7v.56a6.76,6.76,0,0,0-2.4.44,7.58,7.58,0,0,0-2.1,1.45l-4.13,3.81,4.13,5.22a33.18,33.18,0,0,0,2.32,2.74,4.68,4.68,0,0,0,1.47,1.07A4.55,4.55,0,0,0,457,296v.63h-7.82V296a1.67,1.67,0,0,0,.91-.2.64.64,0,0,0,.23-.52,2.69,2.69,0,0,0-.7-1.3l-4.94-6.31V293a6,6,0,0,0,.22,2.06,1.39,1.39,0,0,0,.62.7,4.7,4.7,0,0,0,1.76.23v.63H439.1V296a4.4,4.4,0,0,0,1.85-.3,1.31,1.31,0,0,0,.56-.6,5.42,5.42,0,0,0,.26-2V278.42a27,27,0,0,0-.12-3.42,1.5,1.5,0,0,0-.4-.86,1.12,1.12,0,0,0-.74-.24,3.29,3.29,0,0,0-1.11.3l-.3-.61,4.78-2Z" transform="translate(-115.14 -271.62)"/><path class="cls-3" d="M461.3,293.2a1.87,1.87,0,0,1,1.39.57,1.9,1.9,0,0,1,.56,1.38,1.88,1.88,0,0,1-.57,1.38,1.93,1.93,0,0,1-2.76,0,1.88,1.88,0,0,1-.57-1.38,1.85,1.85,0,0,1,.57-1.38A1.88,1.88,0,0,1,461.3,293.2Z" transform="translate(-115.14 -271.62)"/></g></svg>