<?xml version="1.0" encoding="utf-8"?>
<!-- Generator: Adobe Illustrator 25.4.1, SVG Export Plug-In . SVG Version: 6.00 Build 0)  -->
<svg version="1.1" id="Ebene_1" xmlns="http://www.w3.org/2000/svg" xmlns:xlink="http://www.w3.org/1999/xlink" x="0px" y="0px"
	 viewBox="0 0 100 99" style="enable-background:new 0 0 100 99;" xml:space="preserve">
<g>
	<path d="M45.2,41.3c4-10,9.7-17.1,18.5-21.5c3.8-1.9,7.7-3.1,12-3c7.2,0.3,11.8,4.6,12.5,11.7c0.8,8.7-2.5,15.9-7.6,22.6
		c-3.7,4.8-8.1,8.9-12.4,13C61.9,70,55.9,76,52.2,83.9c-0.7,1.4-1.6,2.6-3,3.1c-1.3,0.4-2.6,2.8-3.2-1.4c-0.8-5.3-4.5-9.9-9.7-12.6
		c-4.6-2.4-9.2-4.6-13.8-7C13.5,61.2,7.7,53.9,6.5,43.4C5.8,37.3,7,31.8,12.3,27.9c5.4-3.9,11.2-4.8,17.4-2.1
		C36.5,28.8,40.9,34.4,45.2,41.3z M51.2,78.1c6.8-8.7,15.2-14.9,21.8-22.8c4.8-5.7,8.4-12,8.9-19.6C82.3,29,79.8,23.9,75,22
		c-5.9-2.4-11.1-0.6-15.6,3.4c-3.6,3.2-5.8,7.3-7.4,11.7c-1.3,3.6-2.3,7.3-3.3,11c-0.7,2.7-2.6,4.5-5.1,4.9c-3,0.5-2.5-2.6-3.1-4.1
		c-3.5-8.6-8.8-15.7-17.5-19.5c-6.7-3-9.7-1-10.1,6.3c-0.4,7.3,1.8,13.8,6.6,19.3c4,4.6,9.3,7.4,14.8,9.9
		C40.7,67.7,47.1,71,51.2,78.1z"/>
</g>
</svg>
