<?xml version="1.0" encoding="utf-8"?>
<!-- Generator: Adobe Illustrator 25.4.1, SVG Export Plug-In . SVG Version: 6.00 Build 0)  -->
<svg version="1.1" id="Ebene_1" xmlns="http://www.w3.org/2000/svg" xmlns:xlink="http://www.w3.org/1999/xlink" x="0px" y="0px"
	 viewBox="0 0 14.2 14.2" style="enable-background:new 0 0 14.2 14.2;" xml:space="preserve">
<style type="text/css">
	.st0{fill:#FF0000;}
</style>
<g>
	<g>
		<path class="st0" d="M10.7,0.9c-0.7,0.6-1.3,1.3-2,2C8.1,3.6,7.5,4.3,6.8,5C5.3,6.3,3.8,7.6,2.6,9c-0.5,0.6-0.6,1.5,0,2.1
			c0.6,0.5,1.6,0.6,2.1,0C6,9.7,7.5,8.4,8.9,7.1c0.7-0.7,1.3-1.3,2-2.1c0.6-0.7,1.2-1.4,2-2c0.6-0.5,0.5-1.6,0-2.1
			C12.2,0.3,11.4,0.3,10.7,0.9L10.7,0.9z"/>
	</g>
</g>
<g>
	<g>
		<path class="st0" d="M2.6,3.7c0.7,1.6,1.9,3,3.1,4.3c0.6,0.7,1.2,1.3,1.8,1.9c0.3,0.3,0.6,0.6,1,0.8c0.2,0.1,0.3,0.3,0.5,0.4
			c0.1,0.1,0.1,0.1,0.2,0.2c0,0,0.3,0.3,0.1,0.1c0.5,0.6,1.3,1,2.1,0.5c0.6-0.4,1-1.4,0.5-2.1c-0.6-0.8-1.3-1.3-2-1.9
			c-0.7-0.6-1.3-1.3-1.9-2C7.7,5.8,7.4,5.5,7.1,5.2C7,5,6.9,4.9,6.7,4.7C6.7,4.6,6.6,4.5,6.5,4.5C6.4,4.4,6.3,4.2,6.5,4.4
			C5.9,3.7,5.5,3,5.2,2.2C4.8,1.5,3.7,1.2,3.1,1.6C2.3,2.1,2.2,2.9,2.6,3.7L2.6,3.7z"/>
	</g>
</g>
</svg>
